<?xml version="1.0" encoding="UTF-8" standalone="no"?>
<!-- Generator: Adobe Illustrator 19.0.0, SVG Export Plug-In . SVG Version: 6.00 Build 0)  -->

<svg
   version="1.1"
   id="Layer_1"
   x="0px"
   y="0px"
   width="512"
   height="512"
   viewBox="0 0 512 512"
   enable-background="new 0 0 1400 980"
   xml:space="preserve"
   sodipodi:docname="photo_babysitBot.svg"
   inkscape:version="1.1.2 (0a00cf5339, 2022-02-04)"
   inkscape:export-filename="/home/margoulin/Documents/telegram_babysitBot/photo_babysitBot.jpg"
   inkscape:export-xdpi="96"
   inkscape:export-ydpi="96"
   xmlns:inkscape="http://www.inkscape.org/namespaces/inkscape"
   xmlns:sodipodi="http://sodipodi.sourceforge.net/DTD/sodipodi-0.dtd"
   xmlns="http://www.w3.org/2000/svg"
   xmlns:svg="http://www.w3.org/2000/svg"><defs
   id="defs126">
	
	
	
<inkscape:path-effect
   effect="spiro"
   id="path-effect89"
   is_visible="true"
   lpeversion="1" /></defs><sodipodi:namedview
   id="namedview124"
   pagecolor="#ffffff"
   bordercolor="#666666"
   borderopacity="1.0"
   inkscape:pageshadow="2"
   inkscape:pageopacity="0.0"
   inkscape:pagecheckerboard="0"
   showgrid="false"
   inkscape:zoom="0.91635266"
   inkscape:cx="324.65667"
   inkscape:cy="163.69244"
   inkscape:window-width="1920"
   inkscape:window-height="1020"
   inkscape:window-x="1920"
   inkscape:window-y="28"
   inkscape:window-maximized="1"
   inkscape:current-layer="Layer_1"
   fit-margin-top="0"
   fit-margin-left="0"
   fit-margin-right="0"
   fit-margin-bottom="0" />









<rect
   style="fill:#ffffff;stroke:none;stroke-width:9.10725;stroke-linecap:round;stroke-linejoin:round;stroke-miterlimit:0.7;stroke-opacity:1"
   id="rect1502"
   width="512"
   height="512"
   x="0"
   y="0"
   inkscape:export-filename="/home/margoulin/Documents/telegram_babysitBot/photo_babysitBot.jpg"
   inkscape:export-xdpi="96"
   inkscape:export-ydpi="96" /><g
   id="g246"
   transform="matrix(0.78083091,0,0,0.78083091,80.152365,60.347263)"
   style="stroke:none"><path
     d="m 303.44808,462.46327 h 23.24579 c 13.28079,0 24.04666,-10.76465 24.04666,-24.04394 V 389.5287 c 0,-13.2793 10.76586,-24.04394 24.04666,-24.04394 h 48.89614 c 13.28079,0 24.04666,-10.76465 24.04666,-24.04395 v -30.45605 42.34472 c 0,7.78321 -3.09215,15.24707 -8.59668,20.75098 l -79.79709,79.78809 c -5.50452,5.5039 -12.96923,8.5957 -20.75331,8.5957 h -35.13483 z"
     fill="#efe2dd"
     id="path6"
     style="stroke-width:0.976618;stroke:none" /><path
     d="M 447.72706,69.172261 V 144.54335 H 12.38496 V 69.172261 c 0,-16.171878 13.11671,-29.296878 29.30018,-29.296878 h 376.74174 c 16.18346,0 29.30018,13.125 29.30018,29.296878 z"
     fill="#fece85"
     id="path8"
     style="fill:#fece85;fill-opacity:1;stroke-width:0.976618;stroke:none" /><g
     id="g18"
     transform="matrix(0.97667271,0,0,0.9765625,-19.97221,-0.138289)"
     style="stroke:none"><g
       id="g12"
       style="stroke:none"><path
         d="m 118.05,93.336 c -5.722,0 -10.58,-0.003 -14.72,-0.003 -12.58,0 -22.81,-10.23 -22.81,-22.8 v -29.56 h 15 v 29.56 c 0,4.3 3.5,7.8 7.81,7.8 4.14,0.001 18.86,15.003 14.72,15.003 z"
         fill="#fdb441"
         id="path10"
         style="stroke:none" /></g><g
       id="g16"
       style="stroke:none"><path
         d="m 390.507,93.336 c 0,0 -10.577,-0.003 -14.727,-0.003 -12.57,0 -22.8,-10.23 -22.8,-22.8 v -29.56 h 15 v 29.56 c 0,4.3 3.5,7.8 7.8,7.8 4.15,0.001 14.727,10.863 14.727,15.003 z"
         fill="#fdb441"
         id="path14"
         style="stroke:none" /></g></g><g
     id="g28"
     style="fill:#fedba6;stroke:none"
     transform="matrix(0.97667271,0,0,0.9765625,-19.97221,-0.138289)"><path
       d="M 120.983,243.142 H 85.269 c -3.945,0 -7.143,-3.198 -7.143,-7.143 v -35.714 c 0,-3.945 3.198,-7.143 7.143,-7.143 h 35.714 c 3.945,0 7.143,3.198 7.143,7.143 v 35.714 c 0,3.945 -3.198,7.143 -7.143,7.143 z"
       id="path20"
       style="stroke:none" /><path
       d="m 222.899,243.142 h -35.714 c -3.945,0 -7.143,-3.198 -7.143,-7.143 v -35.714 c 0,-3.945 3.198,-7.143 7.143,-7.143 h 35.714 c 3.945,0 7.143,3.198 7.143,7.143 v 35.714 c 0,3.945 -3.198,7.143 -7.143,7.143 z"
       id="path22"
       style="stroke:none" /><path
       d="m 324.815,243.142 h -35.714 c -3.945,0 -7.143,-3.198 -7.143,-7.143 v -35.714 c 0,-3.945 3.198,-7.143 7.143,-7.143 h 35.714 c 3.945,0 7.143,3.198 7.143,7.143 v 35.714 c 0,3.945 -3.198,7.143 -7.143,7.143 z"
       id="path24"
       style="stroke:none" /><path
       d="m 426.731,243.142 h -35.714 c -3.945,0 -7.143,-3.198 -7.143,-7.143 v -35.714 c 0,-3.945 3.198,-7.143 7.143,-7.143 h 35.714 c 3.945,0 7.143,3.198 7.143,7.143 v 35.714 c 0,3.945 -3.198,7.143 -7.143,7.143 z"
       id="path26"
       style="stroke:none" /></g><g
     id="g36"
     style="fill:#fedba6;stroke:none"
     transform="matrix(0.97667271,0,0,0.9765625,-19.97221,-0.138289)"><path
       d="M 120.983,335.915 H 85.269 c -3.945,0 -7.143,-3.198 -7.143,-7.143 v -35.714 c 0,-3.945 3.198,-7.143 7.143,-7.143 h 35.714 c 3.945,0 7.143,3.198 7.143,7.143 v 35.714 c 0,3.945 -3.198,7.143 -7.143,7.143 z"
       id="path30"
       style="stroke:none" /><path
       d="m 222.899,335.915 h -35.714 c -3.945,0 -7.143,-3.198 -7.143,-7.143 v -35.714 c 0,-3.945 3.198,-7.143 7.143,-7.143 h 35.714 c 3.945,0 7.143,3.198 7.143,7.143 v 35.714 c 0,3.945 -3.198,7.143 -7.143,7.143 z"
       id="path32"
       style="stroke:none" /><path
       d="m 324.815,335.915 h -35.714 c -3.945,0 -7.143,-3.198 -7.143,-7.143 v -35.714 c 0,-3.945 3.198,-7.143 7.143,-7.143 h 35.714 c 3.945,0 7.143,3.198 7.143,7.143 v 35.714 c 0,3.945 -3.198,7.143 -7.143,7.143 z"
       id="path34"
       style="stroke:none" /></g><path
     d="m 293.09644,412.10938 h -34.88089 c -3.85297,0 -6.97637,-3.12305 -6.97637,-6.97559 v -34.87695 c 0,-3.85254 3.1234,-6.97559 6.97637,-6.97559 h 34.88089 c 3.85297,0 6.97637,3.12305 6.97637,6.97559 v 34.87695 c 0,3.85254 -3.1234,6.97559 -6.97637,6.97559 z"
     id="path38"
     style="fill:#fedba6;stroke-width:0.976618;stroke:none" /><path
     d="M 98.18859,418.50233 H 63.3077 c -3.85298,0 -6.97638,-3.12304 -6.97638,-6.97558 V 376.6498 c 0,-3.85254 3.1234,-6.97559 6.97638,-6.97559 h 34.88089 c 3.85297,0 6.97637,3.12305 6.97637,6.97559 v 34.87695 c 0,3.85254 -3.1234,6.97558 -6.97637,6.97558 z"
     id="path40"
     style="fill:#fedba6;stroke-width:0.976618;stroke:none" /><path
     d="m 392.6358,323.68555 h -34.88089 c -3.85298,0 -6.97638,-3.12304 -6.97638,-6.97558 v -34.87695 c 0,-3.85254 3.1234,-6.97559 6.97638,-6.97559 h 34.88089 c 3.85297,0 6.97637,3.12305 6.97637,6.97559 v 34.87695 c 0,3.85254 -3.1234,6.97558 -6.97637,6.97558 z"
     id="path42"
     style="fill:#fe8e66;fill-opacity:0.938533;stroke-width:0.976618;stroke:none" /><path
     d="m 193.55865,412.10938 h -34.88089 c -3.85297,0 -6.97637,-3.12304 -6.97637,-6.97558 v -34.87695 c 0,-3.85254 3.1234,-6.97559 6.97637,-6.97559 h 34.88089 c 3.85298,0 6.97638,3.12305 6.97638,6.97559 v 34.87695 c 0,3.85254 -3.1234,6.97558 -6.97638,6.97558 z"
     id="path44"
     style="fill:#fedba6;stroke-width:0.976618;stroke:none" /><path
     d="m 358.10358,245.56055 h 34.88089 c 7.88566,0 14.30142,-6.41504 14.30142,-14.29981 v -34.87695 c 0,-7.88477 -6.41576,-14.29981 -14.30142,-14.29981 h -34.88089 c -7.88565,0 -14.30141,6.41504 -14.30141,14.29981 v 34.87695 c 0,7.88477 6.41576,14.29981 14.30141,14.29981 z m 0.34868,-48.82813 h 34.18354 v 34.17969 h -34.18354 z m -0.34868,141.60156 h 34.88089 c 7.88566,0 14.30142,-6.41503 14.30142,-14.2998 v -34.87695 c 0,-7.88477 -6.41576,-14.29981 -14.30142,-14.29981 h -34.88089 c -7.88565,0 -14.30141,6.41504 -14.30141,14.29981 v 34.87695 c 0,7.88477 6.41576,14.2998 14.30141,14.2998 z m 0.34868,-48.82812 h 34.18354 v 34.17969 h -34.18354 z m -99.88725,-43.94531 h 34.88089 c 7.88565,0 14.30142,-6.41504 14.30142,-14.29981 v -34.87695 c 0,-7.88477 -6.41577,-14.29981 -14.30142,-14.29981 h -34.88089 c -7.88566,0 -14.30142,6.41504 -14.30142,14.29981 v 34.87695 c 0,7.88477 6.41576,14.29981 14.30142,14.29981 z m 0.34867,-48.82813 h 34.18355 v 34.17969 H 258.91368 Z M 94.36874,363.28125 H 59.48785 c -7.88565,0 -14.30141,6.41504 -14.30141,14.2998 v 34.87696 c 0,7.88476 6.41576,14.2998 14.30141,14.2998 h 34.88089 c 7.88566,0 14.30142,-6.41504 14.30142,-14.2998 v -34.87696 c 0,-7.88476 -6.41576,-14.2998 -14.30142,-14.2998 z m -0.34867,48.82813 H 59.83653 v -34.17969 h 34.18354 z m 0.34867,-230.0254 H 59.48785 c -7.88565,0 -14.30141,6.41504 -14.30141,14.29981 v 34.87695 c 0,7.88477 6.41576,14.29981 14.30141,14.29981 h 34.88089 c 7.88566,0 14.30142,-6.41504 14.30142,-14.29981 v -34.87695 c 0,-7.88574 -6.41576,-14.29981 -14.30142,-14.29981 z m -0.34867,48.82813 H 59.83653 v -34.17969 h 34.18354 z m 164.54494,105.24707 h 34.88089 c 7.88565,0 14.30142,-6.41504 14.30142,-14.2998 v -34.87696 c 0,-7.88476 -6.41577,-14.2998 -14.30142,-14.2998 h -34.88089 c -7.88566,0 -14.30142,6.41504 -14.30142,14.2998 v 34.87696 c 0,7.88476 6.41576,14.2998 14.30142,14.2998 z m 0.34867,-48.82813 h 34.18355 v 34.17969 H 258.91368 Z M 414.56113,33.470703 H 383.24314 V 22.272461 C 383.24314,9.991211 373.2508,0 360.96817,0 H 357.6045 C 345.32285,0 335.33051,9.991211 335.33051,22.272461 V 33.470703 H 117.14182 V 22.272461 C 117.14182,9.991211 107.14948,0 94.86685,0 H 91.50318 C 79.22055,0 69.22821,9.991211 69.22821,22.272461 V 33.470703 H 37.9112 c -20.22201,0 -36.67406,16.450196 -36.67406,36.669928 V 463.37891 C 1.23714,483.57227 17.66673,500 37.86237,500 h 376.74954 c 20.19564,0 36.62523,-16.42773 36.62523,-36.62109 V 70.140631 C 451.23616,49.920899 434.78411,33.470703 414.56113,33.470703 Z M 349.9806,22.272461 c 0,-4.204101 3.42031,-7.624023 7.62488,-7.624023 h 3.36366 c 4.20458,0 7.62489,3.419922 7.62489,7.624023 V 33.470703 H 349.9806 Z m -266.10132,0 c 0,-4.204101 3.4203,-7.624023 7.62488,-7.624023 h 3.36366 c 4.20458,0 7.62489,3.419922 7.62489,7.624023 V 33.470703 H 83.88025 V 22.272461 Z M 436.58607,463.37891 c 0,12.11621 -9.85755,21.97265 -21.97513,21.97265 H 37.86139 c -12.11758,0 -21.97514,-9.85644 -21.97514,-21.97265 v -0.0459 c 6.13742,4.62402 13.76621,7.37012 22.02495,7.37012 h 296.98957 c 9.79603,0 19.00605,-3.81446 25.93261,-10.74122 l 75.75269,-75.74414 z m -83.22716,-16.65918 c 0.57428,-2.37012 0.88682,-4.8418 0.88682,-7.38575 v -48.89062 c 0,-9.21875 7.50182,-16.71973 16.72259,-16.71973 h 48.89516 c 2.54424,0 5.01619,-0.3125 7.38658,-0.88672 z M 436.58607,138.13867 H 124.46686 c -4.04537,0 -7.32504,3.2793 -7.32504,7.32422 0,4.04492 3.27967,7.32422 7.32504,7.32422 h 312.11921 v 189.56836 c 0,9.21973 -7.50182,16.7207 -16.72259,16.7207 h -48.89516 c -17.29883,0 -31.37268,14.07227 -31.37268,31.36817 v 48.89062 c 0,9.21973 -7.50183,16.7207 -16.72162,16.7207 H 37.9112 c -12.14395,0 -22.02397,-9.8789 -22.02397,-22.02246 V 152.78711 h 79.27945 c 4.04538,0 7.32505,-3.2793 7.32505,-7.32422 0,-4.04492 -3.27967,-7.32422 -7.32505,-7.32422 H 15.88625 V 70.140631 c 0,-12.14258 9.88003,-22.02149 22.02397,-22.02149 h 31.31799 v 21.53516 c 0,12.28125 9.99234,22.27246 22.27497,22.27246 4.04538,0 7.32505,-3.2793 7.32505,-7.32422 0,-4.04492 -3.27967,-7.32422 -7.32505,-7.32422 -4.20457,0 -7.62488,-3.41992 -7.62488,-7.62402 v -21.53516 h 251.45221 v 21.53516 c 0,12.28125 9.99234,22.27246 22.27497,22.27246 4.04538,0 7.32505,-3.2793 7.32505,-7.32422 0,-4.04492 -3.27967,-7.32422 -7.32505,-7.32422 -4.20457,0 -7.62488,-3.41992 -7.62488,-7.62402 v -21.53516 h 64.5815 c 12.14395,0 22.02397,9.87891 22.02397,22.02149 z M 94.36874,272.68262 H 59.48785 c -7.88565,0 -14.30141,6.41504 -14.30141,14.2998 v 34.87696 c 0,7.88476 6.41576,14.2998 14.30141,14.2998 h 34.88089 c 7.88566,0 14.30142,-6.41504 14.30142,-14.2998 v -34.87696 c 0,-7.88574 -6.41576,-14.2998 -14.30142,-14.2998 z m -0.34867,48.82812 H 59.83653 v -34.17969 h 34.18354 z m 65.00636,-75.95019 h 34.88089 c 7.88566,0 14.30142,-6.41504 14.30142,-14.29981 v -34.87695 c 0,-7.88477 -6.41576,-14.29981 -14.30142,-14.29981 h -34.88089 c -7.88566,0 -14.30142,6.41504 -14.30142,14.29981 v 34.87695 c 0,7.88477 6.41576,14.29981 14.30142,14.29981 z m 0.34867,-48.82813 h 34.18355 v 34.17969 H 159.3751 Z m 99.52979,215.37696 c 0.008,-34.17969 -14.40809,-7.35476 -14.64228,0.34863 0,7.88476 6.41577,14.2998 14.30142,14.2998 h 34.88089 c 7.88566,0 14.30142,-6.41504 14.30142,-14.2998 v -34.87696 c 0,-7.88476 -6.41576,-14.2998 -14.30142,-14.2998 h -34.88089 c -7.88565,0 -14.30142,6.41504 -14.30142,14.2998 v 34.87696 c 1.68794,10.78011 14.40273,7.53128 14.64228,-0.34863 l 0.008,-34.17969 h 34.18355 v 34.17969 z m -99.87846,-75.9502 h 34.88089 c 7.88566,0 14.30142,-6.41504 14.30142,-14.2998 v -34.87696 c 0,-7.88476 -6.41576,-14.2998 -14.30142,-14.2998 h -34.88089 c -7.88566,0 -14.30142,6.41504 -14.30142,14.2998 v 34.87696 c 0,7.88476 6.41576,14.2998 14.30142,14.2998 z m 0.34867,-48.82813 h 34.18355 v 34.17969 H 159.3751 Z m -0.34867,139.42676 h 34.88089 c 7.88566,0 14.30142,-6.41504 14.30142,-14.2998 v -34.87696 c 0,-7.88476 -6.41576,-14.2998 -14.30142,-14.2998 h -34.88089 c -7.88566,0 -14.30142,6.41504 -14.30142,14.2998 v 34.87696 c 0,7.88476 6.41576,14.2998 14.30142,14.2998 z m 0.34867,-48.82812 h 34.18355 v 34.17969 H 159.3751 Z"
     id="path52"
     sodipodi:nodetypes="ssssssssscccccssssssssscccccssssssssscccccssssssssscccccssssssssscccccssssssssscccccscssssccsssscsssssscsssssccscsssccccsssscssccscsssscccssscsssssssscssscsscsssssccssssscsscssssssssscccccssssssssscccccccsssssssccccccssssssssscccccsssssssssccccc"
     style="stroke-width:0.976618;stroke:none" /><g
     id="g1446"
     transform="translate(-441.83188,-82.123759)"
     style="stroke:none"><path
       id="XMLID_102_"
       fill="#1b1110"
       d="m 502.26445,446.16288 c 0,-6.36547 0.10975,-12.62119 1.31699,-18.8769 0.439,-2.19499 -0.32924,-3.29249 -2.63398,-3.62174 -13.82843,-1.64624 -26.33987,-6.36546 -36.76607,-15.91367 -1.20724,-1.09749 -1.75599,-0.65849 -2.74373,0.10975 -6.03622,4.60948 -13.71869,3.62173 -17.55992,-1.97549 -4.06073,-6.14597 -1.86574,-15.14542 4.71923,-18.6574 1.20724,-0.6585 1.97549,-0.98775 1.53649,-2.63399 -4.71922,-17.88916 0.54875,-33.47358 11.52369,-47.41176 10.4262,-13.27969 23.48639,-23.70588 40.1683,-27.10812 23.37664,-4.82897 44.55828,1.0975 62.55719,17.23067 1.42674,1.31699 2.52424,1.97549 4.60948,1.53649 5.26797,-1.20724 11.74319,2.19499 14.37717,6.91421 2.63399,4.82898 1.86575,10.4262 -2.19498,14.70643 -0.98775,1.0975 -1.0975,1.97549 -0.76825,3.29248 3.07298,12.07244 1.42674,23.70589 -4.06073,34.79058 -0.6585,1.31699 -0.878,2.19499 0.32925,3.18273 1.42674,1.20725 2.52424,2.96324 4.17048,3.84123 9.43845,4.60948 16.13317,12.73094 24.03513,19.20616 15.58442,12.73093 29.85185,26.77886 41.48529,43.35103 10.75545,15.36492 18.21841,32.15659 20.30365,50.92375 3.84123,34.02233 -15.80392,54.98447 -43.57053,59.7037 -38.08306,6.36546 -69.25191,-7.46297 -93.39679,-36.76607 -15.36492,-18.65741 -22.60838,-41.04629 -26.01062,-64.75217 -1.09749,-7.13372 -1.42674,-14.04793 -1.42674,-21.0719 z m -14.04793,-32.37609 c 10.97495,3.95098 22.16939,4.71923 33.58333,3.29249 15.91367,-1.97549 29.85185,-8.12146 40.6073,-20.30365 10.53595,-11.85294 15.47467,-25.57162 11.63344,-41.70479 0.439,-2.63399 -0.6585,-4.82898 -2.30474,-6.69472 -3.95098,-9.87745 -10.97494,-17.34041 -19.7549,-23.15713 -7.35321,-4.93873 -15.47467,-8.34096 -24.14488,-10.31645 -11.19444,-2.63399 -22.38888,-3.73148 -33.03458,1.42674 -16.68192,8.12146 -29.41285,20.52315 -36.76607,37.75381 -9.21895,21.62064 0.439,46.31427 21.73039,56.19172 1.86574,3.84123 5.15823,3.62173 8.45071,3.51198 z m 171.31889,103.16449 c 0.2195,-4.60948 -0.65849,-9.43846 -1.42674,-14.37718 -0.2195,-1.53649 -0.6585,-2.41449 -2.74374,-2.41449 -20.96214,0.2195 -41.92429,-0.439 -62.66693,-3.29248 -9.65795,-1.317 -19.20616,-3.07299 -27.98611,-7.68246 -1.97549,-0.98775 -2.30474,0.21949 -2.96324,1.31699 -7.79221,11.96269 -16.24292,23.15713 -26.55936,33.03458 -1.5365,1.42675 -1.317,2.41449 -0.10975,3.84123 2.74373,3.29249 5.59722,6.58497 8.77995,9.43846 22.16939,19.5354 47.63126,29.7421 77.48311,24.58387 22.27914,-3.84123 38.52206,-19.9744 38.19281,-44.44852 z m -153.10048,-89.6653 c 0,13.27968 0.54875,25.90087 2.63399,38.4123 3.18273,18.32816 9.21895,35.66857 18.8769,51.69199 1.42675,2.30474 2.19499,2.52424 4.17048,0.439 6.36547,-6.80446 12.29194,-13.93818 17.88916,-21.40114 12.29194,-16.13317 21.40114,-34.02233 30.29085,-52.13099 1.20724,-2.41449 0.439,-2.63399 -1.86574,-2.74374 -12.73094,-0.32924 -25.46187,-1.20724 -37.97331,-3.40223 -11.52369,-1.97549 -23.04738,-4.71923 -34.02233,-10.86519 z m 128.9556,66.94716 c 5.70698,0 11.3042,0 17.01117,0 3.84123,0 3.73148,0 2.52424,-3.62173 -5.48748,-16.46242 -15.14543,-30.4006 -26.23012,-43.46078 -3.29249,-3.95098 -6.25572,-6.36547 -12.18219,-5.70698 -9.7677,0.98775 -19.7549,0.32925 -29.5226,0.32925 -1.64624,0 -2.63399,0.2195 -3.18274,2.08524 -3.73148,13.06019 -9.65795,25.13263 -16.13317,37.09532 -2.63398,4.93872 -2.63398,4.82897 2.63399,6.25572 21.18164,5.26797 43.13153,6.14596 65.08142,7.02396 z m -126.98011,-69.6909 c 0.439,0.98774 1.31699,0.98774 1.97549,1.20724 13.82843,4.49973 27.98611,7.24347 42.47304,8.56046 18.8769,1.75599 37.86356,1.75599 56.74046,1.75599 2.41449,0 6.14597,1.317 7.02397,-0.76824 0.6585,-1.64625 -2.96324,-3.62174 -4.71923,-5.37773 -12.95043,-11.96269 -26.44962,-23.26688 -37.64406,-37.09531 -15.80392,23.15713 -38.52206,32.26634 -65.84967,31.71759 z m -56.74047,-34.79058 c -4.28022,2.85349 -5.92647,8.01171 -3.84123,11.96269 1.756,3.40224 6.25572,4.38998 10.53595,2.63399 1.20725,-0.54875 1.64624,-0.98774 0.6585,-2.08524 -3.18274,-3.73148 -5.37772,-8.01171 -7.35322,-12.51144 z m 126.21187,-44.00953 c 3.18274,-7.02396 -0.54874,-12.84068 -8.01171,-12.95043 1.42675,2.08524 2.96324,4.17048 4.28023,6.25572 1.31699,2.08524 2.41449,4.38998 3.73148,6.69471 z"
       style="stroke-width:1.09749;stroke:none" /><path
       id="XMLID_96_"
       fill="#f9e2ce"
       d="m 574.15034,355.18059 c 3.84123,16.02342 -0.98774,29.7421 -11.63344,41.70479 -10.75545,12.07244 -24.69363,18.32816 -40.6073,20.30365 -11.41394,1.42674 -22.71813,0.65849 -33.58333,-3.29249 3.51198,-1.31699 6.58497,-3.18273 8.67021,-6.36547 1.64624,-2.52423 2.30474,-5.26797 0.76824,-8.12145 -1.42674,-2.52424 -3.95098,-3.40224 -6.58496,-2.74374 -5.70697,1.53649 -12.18219,5.48747 -11.3042,13.71868 -21.29139,-9.87745 -30.94934,-34.57108 -21.73039,-56.19172 7.35322,-17.23066 20.08415,-29.63235 36.76607,-37.75381 10.75544,-5.15822 21.84014,-4.06073 33.03458,-1.42674 8.67021,1.97549 16.79167,5.37772 24.14488,10.31645 8.77996,5.81672 15.80392,13.16993 19.7549,23.15713 -6.80446,0.10975 -11.74319,3.18273 -14.92592,8.99946 -0.98775,1.86574 -1.317,4.17047 0.2195,5.92647 1.42674,1.64624 3.51198,1.86574 5.70697,1.42674 5.70697,-1.0975 8.8897,-4.93873 11.30419,-9.65795 z m -15.03567,27.76661 c 0.2195,-2.96324 -0.98775,-6.25572 -2.41449,-9.5482 -1.0975,-2.52424 -3.07299,-3.84123 -6.03622,-3.84123 -8.34096,0.10974 -15.80392,5.59722 -18.43791,13.60893 -1.53649,4.71922 -1.75599,4.93872 -6.80446,4.06073 -5.92647,-0.98775 -10.31645,1.97549 -11.96269,7.90196 -0.54875,2.19499 0.10974,4.49972 -0.76825,6.47521 -0.6585,1.64625 0,2.52424 1.09749,3.40224 3.18274,2.41449 6.80447,4.06073 10.8652,3.07298 8.67021,-2.08524 17.12091,-5.04847 25.13262,-9.1092 6.25572,-3.07299 9.32871,-8.34096 9.32871,-16.02342 z m -55.31373,-45.54602 c -2.96323,-1.75599 -5.92647,-1.64625 -7.90196,0.32924 -2.19499,2.19499 -2.30474,4.71923 -0.98774,7.35322 1.75599,3.62173 6.91421,5.70697 11.19444,4.71922 3.73148,-0.87799 6.80447,-4.82897 7.13372,-8.6702 0.87799,-9.9872 -12.40169,-17.55991 -20.74265,-14.92593 -0.76825,0.2195 -1.53649,0.878 -2.19499,1.42675 -0.76824,0.65849 -0.98774,1.53649 -0.54875,2.41448 0.32925,0.6585 0.76825,1.20725 1.5365,1.0975 2.41448,-0.32925 -1.0975,-1.0975 0.10975,-1.53649 0.32924,-0.10975 0.76824,-0.32925 1.09749,-0.439 5.04848,-0.98775 13.06018,3.29248 14.92593,7.90196 0.87799,2.30474 0.98774,4.60947 -1.0975,6.36547 -1.97549,1.64624 -4.06073,1.42674 -6.14597,0.10975 -1.64624,-1.0975 -1.86574,-2.41449 -0.10975,-3.62174 1.0975,-0.87799 2.41449,-1.64624 3.73148,-2.52423 z m 32.26634,13.16993 c 1.53649,-3.73148 2.85349,-7.02396 4.06073,-10.2067 0.32925,-0.76824 0.54875,-1.86574 -0.54875,-2.30474 -0.87799,-0.32925 -1.42674,0.54875 -1.86574,1.0975 -3.51198,5.04847 -6.80446,10.31645 -9.5482,15.91367 -0.6585,1.31699 -0.6585,2.52424 0.6585,3.51198 1.31699,1.09749 2.63399,0.439 3.51198,-0.54875 2.08524,-2.19499 4.71923,-3.07298 7.68246,-3.51198 3.29249,-0.439 6.58497,-0.98774 9.87745,-0.32925 1.42675,0.2195 2.74374,-0.32925 2.85349,-1.97549 0.10975,-1.42674 -0.76825,-2.30474 -2.08524,-2.52424 -0.98775,-0.21949 -1.97549,-0.32924 -2.96324,-0.32924 -3.62173,-0.2195 -7.35321,0.32924 -11.63344,1.20724 z m -40.3878,25.90087 c -3.29248,3.07299 -5.59722,5.70697 -7.68246,8.56046 -1.09749,1.53649 -2.08524,3.18273 -2.19499,5.04847 -0.10975,1.20725 -0.10975,2.52424 1.42675,2.96324 1.64624,0.439 2.63398,-0.32925 3.07298,-1.75599 1.53649,-4.17048 4.38998,-7.35322 7.35321,-10.53595 1.317,-1.31699 2.63399,-2.63399 3.73149,-4.28023 0.98774,-1.53649 1.09749,-3.73148 -1.0975,-3.95098 -6.69472,-0.54875 -13.27968,0 -19.3159,3.29248 -0.98775,0.54875 -2.08524,1.317 -1.53649,2.63399 0.65849,1.42674 1.86574,0.54875 2.85348,0.2195 4.06073,-1.53649 8.23121,-2.30474 13.38943,-2.19499 z"
       style="stroke-width:1.09749;stroke:none" /><path
       id="XMLID_95_"
       fill="#ef6769"
       d="m 659.53541,516.95128 c 0.439,24.47412 -15.91367,40.60729 -38.08306,44.44852 -29.85185,5.15823 -55.31372,-4.93872 -77.48311,-24.58387 -3.18273,-2.85349 -6.03622,-6.14597 -8.77995,-9.43846 -1.20725,-1.42674 -1.42675,-2.30473 0.10975,-3.84123 10.31644,-9.87745 18.76715,-21.18164 26.55936,-33.03458 0.6585,-1.0975 0.98775,-2.41449 2.96324,-1.31699 8.77995,4.60947 18.32816,6.36546 27.98611,7.68246 20.74264,2.85348 41.70479,3.40223 62.66693,3.29248 2.08524,0 2.41449,0.878 2.74374,2.41449 0.6585,4.82897 1.53649,9.7677 1.31699,14.37718 z"
       style="fill:#008000;stroke-width:1.09749;stroke:none" /><path
       id="XMLID_94_"
       fill="#ef6769"
       d="m 506.43493,427.28598 c 10.97495,6.25571 22.49864,8.8897 34.13208,10.97494 12.51144,2.19499 25.24237,3.07299 37.97331,3.40223 2.30474,0.10975 3.07298,0.32925 1.86574,2.74374 -8.88971,18.10866 -17.99891,35.99782 -30.29085,52.13099 -5.59722,7.35321 -11.52369,14.59668 -17.88916,21.40114 -1.97549,2.08524 -2.85348,1.86574 -4.17048,-0.439 -9.65795,-16.02342 -15.69417,-33.36383 -18.8769,-51.69199 -2.19499,-12.62118 -2.74374,-25.24237 -2.74374,-38.52205 z"
       style="fill:#008000;stroke-width:1.09749;stroke:none" /><path
       id="XMLID_93_"
       fill="#ef6769"
       d="m 635.39053,494.23314 c -21.94989,-0.878 -43.79003,-1.75599 -65.19117,-7.24346 -5.37772,-1.42675 -5.26797,-1.317 -2.63399,-6.25572 6.47522,-11.85294 12.40169,-23.92538 16.13317,-37.09532 0.54875,-1.86574 1.5365,-2.08524 3.18274,-2.08524 9.87745,0 19.7549,0.6585 29.5226,-0.32924 5.92647,-0.6585 8.8897,1.86574 12.18219,5.70697 11.08469,13.16993 20.74264,26.99836 26.23012,43.46078 1.20724,3.62173 1.31699,3.62173 -2.52424,3.62173 -5.59722,0.2195 -11.30419,0.2195 -16.90142,0.2195 z"
       style="fill:#008000;stroke-width:1.09749;stroke:none" /><path
       id="XMLID_92_"
       fill="#ef6769"
       d="m 508.41042,424.54224 c 27.32761,0.54875 50.04575,-8.56046 65.84967,-31.71759 11.19444,13.82843 24.69363,25.13262 37.64406,37.09531 1.86574,1.75599 5.37773,3.73148 4.71923,5.37773 -0.76825,1.97549 -4.49973,0.65849 -7.02397,0.76824 -18.98665,0.10975 -37.86356,0 -56.74046,-1.75599 -14.48693,-1.31699 -28.64461,-4.06073 -42.47304,-8.56046 -0.6585,-0.2195 -1.53649,-0.2195 -1.97549,-1.20724 z"
       style="fill:#008000;stroke-width:1.09749;stroke:none" /><path
       id="XMLID_91_"
       fill="#f39596"
       d="m 479.76581,410.38456 c -0.98774,-8.23121 5.48748,-12.29194 11.3042,-13.71868 2.63398,-0.6585 5.15822,0.2195 6.58496,2.74374 1.5365,2.85348 0.98775,5.59722 -0.76824,8.12145 -2.08524,3.07299 -5.15823,5.04848 -8.67021,6.36547 -3.29248,0 -6.58497,0.2195 -8.45071,-3.51198 z"
       style="stroke-width:1.09749;stroke:none" /><path
       id="XMLID_90_"
       fill="#f39596"
       d="m 574.15034,355.18059 c -2.41449,4.82897 -5.59722,8.56045 -11.30419,9.65795 -2.19499,0.439 -4.28023,0.2195 -5.70697,-1.42674 -1.5365,-1.756 -1.20725,-4.06073 -0.2195,-5.92647 3.18273,-5.81673 8.12146,-8.99946 14.92592,-8.99946 1.64624,1.86574 2.74374,4.06073 2.30474,6.69472 z"
       style="stroke-width:1.09749;stroke:none" /><path
       id="XMLID_89_"
       fill="#f9e2ce"
       d="m 451.66995,389.75166 c 1.9755,4.49973 4.17048,8.77996 7.35322,12.51144 0.98774,1.0975 0.439,1.53649 -0.6585,2.08524 -4.28023,1.75599 -8.77995,0.76825 -10.53595,-2.63399 -2.08524,-3.84123 -0.43899,-8.99945 3.84123,-11.96269 z"
       style="stroke-width:1.09749;stroke:none" /><path
       id="XMLID_88_"
       fill="#f9e2ce"
       d="m 577.88182,345.74213 c -1.31699,-2.30473 -2.41449,-4.49972 -3.73148,-6.69471 -1.31699,-2.08524 -2.85348,-4.17048 -4.28023,-6.25572 7.46297,0 11.19445,5.92647 8.01171,12.95043 z"
       style="stroke-width:1.09749;stroke:none" /><path
       id="XMLID_85_"
       fill="#1b1110"
       d="m 559.11467,382.9472 c 0.10975,7.68246 -2.96324,12.95043 -9.10921,16.02342 -8.01171,4.06073 -16.46242,7.02396 -25.13262,9.1092 -4.06073,0.98775 -7.68246,-0.65849 -10.8652,-3.07298 -1.09749,-0.76825 -1.75599,-1.75599 -1.09749,-3.40224 0.76824,-2.08524 0.10975,-4.38997 0.76824,-6.47521 1.64625,-5.92647 6.03622,-8.88971 11.96269,-7.90196 5.04848,0.87799 5.26798,0.76824 6.80447,-4.06073 2.52424,-8.12146 9.9872,-13.49919 18.43791,-13.60893 2.96323,0 4.93872,1.20724 6.03622,3.84123 1.20724,3.29248 2.41449,6.58496 2.19499,9.5482 z m -4.82898,0.32925 c 0.10975,-1.5365 -0.10975,-3.07299 -0.76825,-4.71923 -1.64624,-4.49973 -2.52423,-5.04847 -7.02396,-3.51198 -4.93873,1.75599 -8.34096,4.82897 -9.9872,10.09695 -2.52424,7.90196 -5.26797,8.23121 -10.8652,6.69471 -0.76824,-0.2195 -1.53649,-0.2195 -2.30473,-0.2195 -4.60948,-0.21949 -6.91422,2.30474 -6.91422,7.79222 0,2.52423 2.19499,3.84123 6.58497,3.62173 1.20724,0 2.52423,0 3.62173,-0.439 6.03622,-2.08524 12.18219,-4.06073 17.99891,-6.58497 5.48747,-2.08524 10.09695,-5.48747 9.65795,-12.73093 z"
       style="stroke-width:1.09749;stroke:none" /><path
       id="XMLID_84_"
       fill="#1b1110"
       d="m 503.80094,337.40118 c -1.31699,0.87799 -2.63398,1.53649 -3.95098,2.41448 -1.75599,1.20725 -1.53649,2.52424 0.10975,3.62174 2.08524,1.31699 4.17048,1.53649 6.14597,-0.10975 2.08524,-1.75599 2.08524,-4.06073 1.0975,-6.36547 -1.86574,-4.71923 -9.87745,-8.88971 -14.92593,-7.90196 -0.439,0.10975 -0.76824,0.32925 -1.09749,0.439 -1.0975,0.43899 2.30474,1.20724 -0.10975,1.53649 -0.76825,0.10975 -1.20725,-0.439 -1.53649,-1.0975 -0.439,-0.87799 -0.2195,-1.75599 0.54874,-2.41448 0.6585,-0.54875 1.42675,-1.20725 2.19499,-1.42675 8.34096,-2.63398 21.62064,4.93873 20.74265,14.92593 -0.32925,3.84123 -3.40224,7.79221 -7.13372,8.6702 -4.28023,0.98775 -9.3287,-1.09749 -11.19444,-4.71922 -1.31699,-2.63399 -1.20724,-5.15823 0.98774,-7.35321 2.19499,-1.86575 5.15823,-1.9755 8.12146,-0.2195 z"
       style="stroke-width:1.09749;stroke:none" /><path
       id="XMLID_83_"
       fill="#1b1110"
       d="m 536.06728,350.57111 c 4.28023,-0.878 7.90196,-1.42674 11.63344,-1.31699 0.98775,0 1.97549,0.10975 2.96324,0.32925 1.42674,0.21949 2.19499,1.09749 2.08524,2.52423 -0.10975,1.64624 -1.42674,2.30474 -2.85349,1.97549 -3.29248,-0.54874 -6.58496,-0.10975 -9.87745,0.32925 -2.85348,0.439 -5.59722,1.20724 -7.68246,3.51198 -0.98774,0.98775 -2.19499,1.64625 -3.51198,0.54875 -1.20725,-0.98774 -1.317,-2.19499 -0.6585,-3.51198 2.74374,-5.59722 5.92647,-10.8652 9.5482,-15.91367 0.439,-0.54875 0.98775,-1.42674 1.86574,-1.0975 1.0975,0.439 0.76825,1.5365 0.54875,2.30474 -1.20724,3.40223 -2.52424,6.58497 -4.06073,10.31645 z"
       style="stroke-width:1.09749;stroke:none" /><path
       id="XMLID_82_"
       fill="#1b1110"
       d="m 495.67948,376.47198 c -5.15822,-0.10975 -9.3287,0.54875 -13.38943,2.19499 -0.98774,0.439 -2.19499,1.20724 -2.85348,-0.2195 -0.6585,-1.20724 0.54874,-2.08524 1.53649,-2.63399 6.03622,-3.29248 12.62118,-3.84123 19.3159,-3.29248 2.19499,0.2195 2.08524,2.41449 1.0975,3.95098 -0.98775,1.53649 -2.41449,2.85349 -3.73149,4.28023 -2.96323,3.18273 -5.81672,6.36547 -7.35321,10.53595 -0.54875,1.42674 -1.53649,2.19499 -3.07298,1.75599 -1.5365,-0.439 -1.5365,-1.64624 -1.42675,-2.96324 0.10975,-1.97549 1.0975,-3.51198 2.19499,-5.04847 2.08524,-2.85349 4.38998,-5.48747 7.68246,-8.56046 z"
       style="stroke-width:1.09749;stroke:none" /><path
       id="XMLID_81_"
       fill="#bd2126"
       d="m 554.28569,383.27645 c 0.439,7.13371 -4.17048,10.53594 -9.65795,12.84068 -5.92647,2.41449 -11.96269,4.49973 -17.99891,6.58497 -1.0975,0.439 -2.41449,0.439 -3.62173,0.439 -4.38998,0.10975 -6.58497,-1.0975 -6.58497,-3.62174 0,-5.48747 2.30474,-8.12145 6.91422,-7.79221 0.76824,0 1.53649,0 2.30473,0.2195 5.59723,1.5365 8.34096,1.20725 10.8652,-6.69471 1.64624,-5.26798 5.04847,-8.34096 9.9872,-10.09695 4.49973,-1.5365 5.37772,-1.0975 7.02396,3.51198 0.6585,1.53649 0.878,3.18273 0.76825,4.60948 z"
       style="stroke-width:1.09749;stroke:none" /></g><path
     d="m 431.62281,257.46277 c 0.37312,-0.41982 0.78519,-1.11435 1.16775,-1.31507 0.0756,-0.079 -0.2291,-0.0806 -0.14346,-0.24465 0.23408,-0.1079 0.48154,-0.2647 0.76622,-0.56553 0.25413,0.20241 -0.44815,0.66784 -0.26466,0.88971 -0.23634,0.21185 -0.35311,0.31473 -0.34198,0.51992 -0.5227,0.39811 -0.47656,0.63943 -0.89305,0.92024 -0.0461,-0.2213 -0.16347,-0.0333 -0.29082,-0.20462 z m -0.0406,0.15403 c 0.0237,0.0406 0.0595,0.039 0.10231,0.007 0.0374,0.23408 -0.37976,0.27748 -0.10231,-0.007 z m -74.39473,28.44782 c -0.19184,-0.23352 -0.51381,-0.39812 -0.71674,-0.64168 -0.47544,-0.57052 -0.78463,-1.17993 -1.32231,-1.70652 -0.47487,-0.46487 -1.03317,-0.81131 -1.50747,-1.31342 -0.35143,-0.372 -0.50325,-0.46262 -0.75959,-0.69453 -0.74789,-0.67781 -1.21497,-1.35453 -1.80051,-1.4296 -0.65169,-0.36866 -1.33287,-0.94528 -1.91448,-1.25893 -0.0917,-0.0489 -0.20743,-0.22074 -0.243,-0.23966 -1.47412,-0.80347 -2.8637,-0.89079 -4.37893,-2.01848 -0.2786,0.0233 -0.60334,0.15347 -1.02429,0.0968 -0.18738,-0.0249 -0.45373,-0.2152 -0.61942,-0.20909 -0.61278,0.0233 -0.87913,0.67118 -1.60701,0.36866 -0.11843,0.0484 -0.0617,0.16681 -0.10288,0.24578 -0.75958,0.60443 -1.21163,1.33954 -1.89892,1.68763 -0.0362,0.65225 -0.49822,0.90027 -0.58386,1.45411 -0.0534,0.34419 0.0461,0.84908 0.0422,1.2361 -0.004,0.44152 0.0545,0.85744 0.0113,1.25946 -0.22741,0.18461 0.006,0.55219 -0.12956,0.77349 0.19575,0.51992 0.25691,0.98643 0.46266,1.50968 -0.0428,0.10232 -0.007,0.2369 -0.0912,0.32253 0.33253,1.18162 0.58108,2.44662 1.41352,3.75059 0.0751,0.11678 0.23798,0.36533 0.34917,0.49654 0.73512,0.87025 1.77716,2.28486 1.85669,2.99325 0.10677,0.17794 0.17851,0.11457 0.28472,0.29195 -0.0606,0.21853 0.055,0.90803 0.39868,1.30506 0.11842,0.13679 0.51212,0.21966 0.79904,0.49545 0.42762,0.41093 0.52382,1.05595 0.90193,1.43241 0.17348,0.17292 0.51268,0.22685 0.71453,0.39032 0.5266,0.42484 1.31286,1.51973 1.60702,1.99794 0.23243,0.37754 0.19462,0.62276 0.4365,0.8541 0.21852,0.20905 0.51992,0.25353 0.73286,0.039 1.05873,0.24188 2.0841,2.27595 3.15452,3.11225 0.44095,0.90192 1.33785,1.36791 1.90117,2.11412 0.11176,0.14961 0.19293,0.37368 0.31803,0.51992 0.20688,0.24412 0.57666,0.49098 0.87524,0.77738 0.51104,0.4893 0.89083,0.97474 1.33954,1.35345 0.27194,0.93636 1.03538,1.15381 1.50025,1.74156 0.17517,0.22074 0.25521,0.51268 0.45707,0.75456 0.17014,0.20462 0.42038,0.32972 0.60001,0.55994 0.17958,0.22798 0.27635,0.5405 0.45707,0.754 0.13454,0.16014 0.29857,0.23802 0.40089,0.37425 0.13458,0.17959 0.1535,0.34809 0.31806,0.51992 0.17296,0.18072 0.44763,0.278 0.62115,0.46097 0.63501,0.6678 1.14545,1.5336 1.92115,2.01458 l 0.0197,0.0322 c 0.006,0.01 0.0113,0.0193 0.0265,0.0402 l 0.0756,0.1073 c 0.0512,0.0706 0.10175,0.14125 0.15234,0.21133 0.10288,0.14013 0.20632,0.27801 0.31084,0.41423 0.20908,0.2725 0.42207,0.53829 0.63778,0.79961 0.43208,0.52326 0.87468,1.02815 1.32508,1.54361 0.90304,1.03373 1.82611,2.0941 2.8387,3.51763 0.56272,0.5544 0.96365,0.94918 1.49409,1.70821 0.13125,0.11396 0.15572,-0.004 0.34532,0.23966 0.49211,0.6756 1.0226,1.25058 1.54975,1.81386 0.52824,0.56492 1.05258,1.11711 1.56916,1.79271 0.0934,-0.0912 0.1863,-0.17794 0.27969,-0.26133 0.0434,-0.11288 0.0934,-0.22688 0.17184,-0.3509 1.64427,-1.47464 3.81288,-3.74279 5.02841,-5.36427 0.53603,-0.42762 1.08432,-1.02092 1.6437,-1.66203 0.55995,-0.64281 1.1299,-1.33231 1.74381,-1.98959 0.57662,-0.61721 1.22055,-1.14657 1.73879,-1.75936 0.30637,-0.35644 0.39369,-0.46261 0.57549,-0.66113 0.16737,-0.18184 0.34475,-0.36589 0.52217,-0.54829 0.35476,-0.3642 0.70952,-0.72286 0.98366,-1.05149 0.16291,-0.19575 0.25132,-0.45209 0.40869,-0.64558 0.28471,-0.35142 0.69786,-0.62669 0.98587,-1.01649 1.10992,-1.5019 2.68077,-2.9493 3.7923,-4.1326 0.34367,-0.36589 0.54496,-0.76457 0.8975,-1.20552 0.5833,-0.72901 1.39794,-1.29008 2.00124,-2.00626 0.15182,-0.18015 0.25188,-0.39981 0.38811,-0.5683 0.35367,-0.4365 0.77462,-0.77458 1.17442,-1.21051 0.97808,-1.06596 1.81442,-2.27092 2.87981,-3.13616 1.00311,-1.44129 2.79916,-3.22958 4.15261,-4.7287 0.15572,-0.47656 0.58498,-0.66559 0.88581,-1.02425 0.92748,-1.10936 2.01735,-2.61961 3.17284,-3.60769 4.082,-4.88941 8.74175,-9.60256 12.74149,-14.47694 0.45486,-0.24798 0.90357,-0.8758 1.11989,-1.26668 0.13791,0 0.33141,-0.21299 0.50489,-0.35199 0.35142,-0.75235 1.1833,-1.33066 1.81831,-2.098 -0.0117,-0.35753 0.53772,-0.66282 0.65502,-1.06817 0.2113,-0.0217 -0.0612,0.23963 0.18297,0.0917 0.10621,-0.78349 1.75546,-2.22366 2.33321,-3.02106 -0.0478,0.0489 -0.10734,0.0121 -0.0551,-0.0562 0.24521,-0.0934 0.15568,-0.33193 0.34198,-0.51988 1.17828,-1.32789 1.71596,-2.56122 2.63179,-3.77788 0.17738,-0.094 0.66784,-0.32972 0.66507,-0.57384 -0.20744,0.18071 -0.43541,0.44264 -0.5583,0.29528 0.35701,-0.28861 0.70509,-0.78293 0.80351,-1.10824 0.37256,-0.42202 0.64393,-0.56215 0.88581,-1.02481 0.0862,-0.0878 -0.22633,-0.0489 -0.0423,-0.23741 0.61335,-0.50489 0.76292,-0.90803 1.31563,-1.35514 0.01,-0.27302 0.53937,-0.91357 0.78458,-1.03312 0.10067,-0.22078 -0.28358,0.0817 -0.18292,-0.0917 0.39703,-0.50493 0.7501,-0.99033 1.24165,-1.3362 0.0382,-0.1646 0.0213,-0.31361 0.16629,-0.50715 0.10175,-0.1273 0.0973,0.1546 0.22186,-0.0612 0.0817,-0.23577 -0.25136,0.006 -0.31139,-0.12735 0.17291,-0.27635 0.0606,-0.2958 0.0917,-0.48652 0.38313,-0.25188 0.43316,-0.62444 0.66338,-0.96421 0.23689,-0.35086 0.60387,-0.64337 0.83799,-0.97643 0.20185,-0.2858 0.20462,-0.48656 0.47596,-0.76959 0.21965,-0.23074 0.50493,-0.3292 0.73901,-0.59442 0.10452,-0.15793 -0.19185,-0.008 -0.0145,-0.20853 0.81464,-0.93471 1.62924,-1.8689 2.07799,-2.70299 -0.73953,1.23168 -1.67819,1.75494 -2.32043,2.83979 -0.25522,0.0157 -0.2997,0.47708 -0.59888,0.44931 0.0169,0.13012 0.26249,-0.0293 0.0623,0.1607 -0.0728,0.0567 -0.12899,0.0522 -0.21575,0.16569 -0.0322,-0.27081 -0.21073,-0.0812 -0.3859,-0.10678 -0.70896,0.77072 -1.19942,1.4341 -1.81719,2.09744 -0.0795,0.15628 0.16629,-0.004 0.0617,0.16018 -0.21129,0.2758 -0.41427,0.4465 -0.65112,0.78346 -0.19631,-0.0173 -0.43931,0.12956 -0.48657,-0.11565 0.84743,-0.87966 1.76326,-2.2993 2.73527,-3.38029 0.29524,-0.32695 0.72342,-0.55214 0.71731,-0.90746 -0.39149,0.52771 -0.95087,0.72398 -1.35735,1.11988 -0.52602,0.51269 -0.88468,1.25226 -1.41517,1.73823 -0.14957,0.13679 -0.25799,0.14961 -0.38256,0.28306 -0.0979,0.1034 -0.18015,0.35974 -0.29472,0.47206 -0.12566,0.1218 -0.1935,0.0712 -0.2897,0.1863 -0.19739,0.23521 -0.26466,0.49601 -0.50156,0.74066 -0.3959,0.40925 -0.88468,0.71566 -1.27613,1.20388 -0.12959,0.035 -0.22077,-0.12012 -0.14346,-0.24522 0.51377,-0.53161 0.5933,-0.63002 1.10096,-1.19053 -0.0706,0.0495 -0.13176,0.0634 -0.17569,0.0129 0.16794,-0.16179 0.26024,-0.18851 0.30192,-0.36754 -0.37923,0.41428 -0.56441,0.17015 -0.53491,-0.0656 0.99423,-0.97976 2.06517,-2.32043 2.9343,-3.08054 0.0261,-0.14848 0,-0.28359 0.11899,-0.45819 0.81351,-1.00814 1.87783,-1.99348 2.75749,-3.06668 -1.2517,0.99146 -2.28149,2.2882 -3.47034,3.68891 -0.0756,0.0257 -0.11457,-0.0884 -0.22243,0.0612 -0.45598,0.64502 -1.10156,1.28895 -1.48911,1.7588 -0.30806,0.0817 -0.61387,0.15403 -0.91751,0.21688 -1.21553,1.49912 -2.68074,2.05183 -3.94465,3.3925 -0.0801,-0.0879 -0.20462,-0.007 -0.3036,-0.0233 0.0309,-0.17404 0.007,-0.33249 0.0639,-0.51433 0.20185,-0.2252 0.36758,-0.49432 0.6111,-0.63003 0.80962,-1.36956 2.50059,-2.80531 3.67665,-4.34891 0.0193,-0.30473 -0.21575,-0.27246 -0.44819,-0.26744 -0.71952,0.60053 -1.10264,1.40569 -1.95341,1.95732 -0.57719,-0.059 -0.55717,-0.54886 -0.0545,-1.12102 0.83296,-0.94809 2.35547,-2.50058 2.96098,-3.05164 2.33602,-2.8815 4.93169,-5.47772 7.37331,-8.38534 -1.50691,1.47468 -2.66405,3.06221 -4.08087,4.31889 0.0673,0.0528 0.0473,0.12956 -0.0595,0.2291 -1.30562,1.31953 -2.71187,2.82367 -3.71779,4.11258 -0.67283,0.30416 -1.33452,1.49024 -2.01571,1.79665 -0.20406,-0.4293 0.0366,-0.98089 0.44317,-1.577 -0.48042,0.54773 -1.05206,0.94195 -1.49076,1.36792 -0.35978,0.34973 -0.85688,1.07206 -1.101,1.19105 -0.059,0.0285 -0.0445,-0.11955 -0.12787,-0.0366 0.14567,-0.14458 -0.233,0.28416 -0.25583,0.31972 -0.15013,0.23412 -0.0917,0.21965 -0.32084,0.4432 -0.29801,0.2897 -0.29693,0.2797 -0.55158,0.39981 -1.03373,0.99644 -1.88671,2.10299 -2.93322,3.07941 -0.10898,0.10175 -0.31027,0.3253 -0.32916,0.33921 -0.11288,0.0795 -0.0901,-0.0578 -0.22299,0.0617 -0.0756,0.0678 0.0233,0.099 -0.0862,0.20073 -0.40868,0.38092 -0.87355,0.81798 -1.24888,1.23112 -0.93865,1.03313 -2.14751,2.16081 -2.91373,3.00326 -0.19409,0.16513 -0.0629,-0.16962 -0.29697,0.0812 -1.4118,1.36233 -2.88869,2.82254 -4.35779,4.32331 -0.11843,0.10569 -0.15681,-0.1034 -0.2975,0.0823 -0.21909,0.1902 -0.033,0.26916 -0.21965,0.45096 -0.14788,0.0829 -0.29191,0.1507 -0.41757,0.15014 -1.75269,1.65319 -3.33467,3.56766 -4.98673,5.41989 -1.53858,1.72601 -3.13005,3.41139 -4.61024,5.03231 -1.16719,1.27781 -2.17918,2.59622 -3.32133,3.64719 -1.32676,1.60252 -2.56231,2.90372 -3.8785,4.33388 -0.94862,1.03036 -2.07132,2.0919 -2.81254,3.0105 -0.12731,0.15845 -0.22685,0.3959 -0.38924,0.56939 -0.24352,0.2608 -0.58719,0.43207 -0.8324,0.69006 -0.66338,0.69899 -1.22164,1.52862 -1.88446,2.2231 -0.74455,0.77904 -1.47412,1.51527 -2.20923,2.27651 -0.4148,0.42874 -0.71506,0.93363 -1.11378,1.37181 -0.26358,0.29026 -0.62224,0.51711 -0.89968,0.81572 -0.77738,0.83574 -1.448,1.79939 -2.21365,2.56175 -1.0226,1.0187 -2.16254,1.98122 -3.02774,3.17618 -1.18274,1.10654 -2.53397,2.53397 -3.54375,3.70892 -1.37901,1.01255 -1.02035,1.09875 -1.39235,1.39013 -0.0305,0.0213 -0.0762,-0.0177 -0.10955,-0.007 -0.21575,0.0717 -0.36034,0.27414 -0.5216,0.51212 -0.15681,0.233 -0.32916,0.50047 -0.47154,0.56328 -0.0193,-0.0362 -0.0366,-0.0734 -0.0528,-0.114 -0.0589,0.0895 -0.11124,0.0185 -0.15239,-0.0889 -0.0422,-0.10846 -0.0745,-0.253 -0.11452,-0.33755 -0.0829,-0.17903 -0.21186,-0.12398 -0.3153,-0.243 -0.0334,-0.0378 -0.0313,-0.15846 -0.0578,-0.20515 -0.0795,-0.14346 -0.23576,-0.12791 -0.36532,-0.24469 -0.0956,-0.0856 -0.13679,-0.25188 -0.1824,-0.39036 -0.0117,-0.035 -0.0237,-0.0684 -0.0382,-0.10006 -0.007,-0.0157 -0.0149,-0.0306 -0.0233,-0.0451 l -0.0137,-0.0217 -0.0217,-0.0277 -0.0346,-0.0422 c -0.18405,-0.22467 -0.38703,-0.44095 -0.6189,-0.63947 -0.4821,-0.80797 -1.2322,-1.97568 -2.05295,-2.67631 -0.92306,-1.57141 -2.34712,-2.75246 -3.42529,-4.25882 -0.36424,-0.50878 -0.56666,-1.07765 -1.11157,-1.44354 -0.25466,-0.63557 -0.84522,-1.15601 -1.33344,-1.78327 -0.4821,-0.61889 -0.91024,-1.32564 -1.39793,-1.98677 -0.69448,-0.94195 -1.751,-1.95233 -1.98066,-2.89874 0.42874,-0.87411 -1.07094,-0.63609 -1.52914,-1.46576 -0.17738,-0.49432 0.0561,-0.60443 0.16846,-0.97253 -0.17903,-0.42484 -0.50598,-0.69171 -0.83461,-0.97586 -0.25301,-0.4404 -0.1763,-0.97699 -0.59832,-1.49193"
     style="fill:#800080;fill-opacity:1;fill-rule:evenodd;stroke:none;stroke-width:0.00556054"
     id="path190" /></g></svg>
